# xmcd CD database file
#
# Track frame offsets:
#	150
#	17808
#	40255
#	60825
#	71611
#	83225
#	96290
#	107037
#	120607
#	136967
#	142897
#	164496
#	175480
#	188923
#	206920
#	220835
#	230492
#	245767
#	254212
#	264813
#	274285
#	278655
#	288405
#	295798
#	314426
#	331746
#	344739
#
# Disc length: 4792 seconds
#
# Revision: 2
# Processed by: cddbd v1.5.2PL0 Copyright (c) Steve Scherf et al.
# Submitted via: CDex 1.70beta3
#
DISCID=aa12b61b
DTITLE=FMPSG - FMPSG003 -The Chiptune Memories-
DYEAR=2005
DGENRE=Game
TTITLE0=骨折飲料 - いい娘ではいられない (アイドル防衛隊ハミングバード)
TTITLE1=じゅん - ON THE LIMIT (OVERTAKE)
TTITLE2=Akino - BOSQUE (ウィンズオブサンダー)
TTITLE3=LOG-KB - 通常戦闘 (真・女神転生Ⅲ NOCTURNE)
TTITLE4=じゅん - Violent Breathing (ベアナックル)
TTITLE5=Takeo project - dungeon-VA040531 (オリジナル)
TTITLE6=Takeo project - Beginning JUMBO (オリジナル)
TTITLE7=国王 - 雪の五条大橋 (戦国ソーサリアン)
TTITLE8=萌尽狼 - JAPANESE SMYLE (ニンジャウォーリアーズ)
TTITLE9=Wiz. - スペースボコスカ2005 (ボコスカウォーズ)
TTITLE10=Chabinn - Stage2-3 (GENOCIDE2)
TTITLE11=Darios Sawm - Bravery (GENOCIDE2)
TTITLE12=Darios Sawm - Dead End Cell (GRADIUSⅢ)
TTITLE13=M+B Apos. - ALTERNATIVE, wiz Tension (オリジナル)
TTITLE14=国王 - Beautiful Day (ソーサリアン)
TTITLE15=子無零　すこぴお - 滅びた先にあるものは (オリジナル)
TTITLE16=霧島　雫 - 魔法少女十字軍 (秋霜玉)
TTITLE17=Wiz. - マリンドライブ (ポップンミュージック8)
TTITLE18=LOG-KB - Burning Soul (オリジナル)
TTITLE19=萌尽狼 - Timeslip Factory (オリジナル)
TTITLE20=子無零　すこぴお - モスキィーの旅立ち (オリジナル)
TTITLE21=萌尽狼 - Bloody Tribute (オリジナル)
TTITLE22=M+B Apos. - One Day, One Knight... (オリジナル)
TTITLE23=Wiz. - まるもうけ (「an」 CMソング)
TTITLE24=Darios Sawm - Bracing wind (オリジナル)
TTITLE25=M+B Apos. - OTOKO-DAMASHII (オリジナル)
TTITLE26=骨折飲料 - 思いという名の宝石 (デュエル・セイヴァー)
EXTD=YEAR: 2005
EXTT0=
EXTT1=
EXTT2=
EXTT3=
EXTT4=
EXTT5=
EXTT6=
EXTT7=
EXTT8=
EXTT9=
EXTT10=
EXTT11=
EXTT12=
EXTT13=
EXTT14=
EXTT15=
EXTT16=
EXTT17=
EXTT18=
EXTT19=
EXTT20=
EXTT21=
EXTT22=
EXTT23=
EXTT24=
EXTT25=
EXTT26=
PLAYORDER=
